<?xml version="1.0" encoding="utf-8"?>
<!-- Generator: Adobe Illustrator 16.0.0, SVG Export Plug-In . SVG Version: 6.00 Build 0)  -->
<!DOCTYPE svg PUBLIC "-//W3C//DTD SVG 1.1//EN" "http://www.w3.org/Graphics/SVG/1.1/DTD/svg11.dtd">
<svg version="1.1" id="Capa_1" xmlns="http://www.w3.org/2000/svg" xmlns:xlink="http://www.w3.org/1999/xlink" x="0px" y="0px"
	 width="1400px" height="1400px" viewBox="0 0 1400 1400" enable-background="new 0 0 1400 1400" xml:space="preserve">
<path fill="#D3D3D3" stroke="#85A9F9" stroke-width="0.5" stroke-miterlimit="10" d="M703.088,191.889"/>
<g opacity="0.1">
	<g>
		<path fill="#D3D3D3" d="M389.577,1088.585c0,41.673-33.782,75.459-75.459,75.459c-41.674,0-75.457-33.786-75.457-75.459
			c0-41.687,33.783-75.459,75.457-75.459C355.795,1013.126,389.577,1046.898,389.577,1088.585z"/>
	</g>
	<g>
		<path fill="#D3D3D3" d="M1170.276,1086.121c0,41.673-33.786,75.462-75.46,75.462c-41.672,0-75.458-33.789-75.458-75.462
			c0-41.684,33.786-75.456,75.458-75.456C1136.49,1010.665,1170.276,1044.438,1170.276,1086.121z"/>
	</g>
	<g>
		<path fill="#D3D3D3" d="M790.059,1294.561c0,47.66-38.627,86.289-86.289,86.289c-47.664,0-86.293-38.629-86.293-86.289
			c0-47.666,38.629-86.297,86.293-86.297C751.432,1208.264,790.059,1246.895,790.059,1294.561z"/>
	</g>
	<path fill="#D3D3D3" d="M341.784,935.75c0,14.688-11.907,26.594-26.583,26.594c-14.691,0-26.6-11.906-26.6-26.594
		c0-14.683,11.909-26.593,26.6-26.593C329.877,909.157,341.784,921.067,341.784,935.75z"/>
	<path fill="#D3D3D3" d="M1120.02,935.75c0,14.688-11.907,26.594-26.585,26.594c-14.689,0-26.601-11.906-26.601-26.594
		c0-14.683,11.911-26.593,26.601-26.593C1108.112,909.157,1120.02,921.067,1120.02,935.75z"/>
	<path fill="#D3D3D3" d="M730.711,1119.574c0,15.557-12.617,28.172-28.178,28.172c-15.557,0-28.169-12.615-28.169-28.172
		c0-15.559,12.612-28.172,28.169-28.172C718.094,1091.402,730.711,1104.016,730.711,1119.574z"/>
	<path fill="#D3D3D3" d="M703.088,191.889c-232.618,0-421.181,188.565-421.181,421.181c0,232.605,188.562,421.179,421.181,421.179
		c232.605,0,421.171-188.574,421.171-421.179C1124.259,380.454,935.693,191.889,703.088,191.889z M703.088,964.047
		c-193.842,0-350.982-157.142-350.982-350.977c0-193.858,157.141-350.991,350.982-350.991
		c193.838,0,350.986,157.132,350.986,350.991C1054.074,806.905,896.926,964.047,703.088,964.047z"/>
	<path fill="#D3D3D3" d="M1013.848,613.055c0,170.564-138.27,308.83-308.809,308.83c-170.562,0-308.828-138.266-308.828-308.83
		c0-170.541,138.266-308.81,308.828-308.81C875.578,304.245,1013.848,442.514,1013.848,613.055z"/>
</g>
<rect x="662" y="17" fill="#C6E979" width="80" height="128"/>
</svg>
