<?xml version="1.0" encoding="utf-8"?>
<!-- Generator: Adobe Illustrator 16.0.0, SVG Export Plug-In . SVG Version: 6.00 Build 0)  -->
<!DOCTYPE svg PUBLIC "-//W3C//DTD SVG 1.1//EN" "http://www.w3.org/Graphics/SVG/1.1/DTD/svg11.dtd">
<svg version="1.1" id="Capa_1" xmlns="http://www.w3.org/2000/svg" xmlns:xlink="http://www.w3.org/1999/xlink" x="0px" y="0px"
	 width="1129.068px" height="300px" viewBox="0 0 1129.068 300" enable-background="new 0 0 1129.068 300" xml:space="preserve">
<g>
	<polygon fill="#F4F4F4" points="828.492,138 746,138 746,118 838.337,118 	"/>
	<rect x="760" y="44" fill="#F4F4F4" width="105" height="20"/>
	<rect x="760" y="199" fill="#F4F4F4" width="105" height="21"/>
	<rect x="767" y="60" fill="#F4F4F4" width="21" height="145"/>
	<rect x="15" y="201" fill="#F4F4F4" width="72" height="19"/>
	<rect x="15" y="92" fill="#F4F4F4" width="72" height="19"/>
	<rect x="290" y="63" fill="#F4F4F4" width="20" height="157"/>
	<polygon fill="#F4F4F4" points="232,43 232,64 277.726,64 290.679,64 311.403,64 315.03,64 369,64 369,43 	"/>
	<rect x="641" y="63" fill="#F4F4F4" width="20" height="157"/>
	<polygon fill="#F4F4F4" points="582,43 582,64 627.978,64 640.932,64 661.656,64 665.283,64 719,64 719,43 	"/>
	<polygon fill="#F4F4F4" points="986.792,124.983 1000.484,138.989 1048,91.285 1048,199.259 909.525,60.121 909.498,60.243 
		892,42.911 892,220 912,220 912,91.435 1040.66,219.873 1069,219.864 1069,42.666 	"/>
	<path fill="#F4F4F4" d="M564.249,199.386"/>
	<path fill="#F4F4F4" d="M475.617,42.911"/>
	<g>
		<circle fill="#F4F4F4" cx="393.785" cy="231.56" r="15.875"/>
	</g>
	<g>
		<circle fill="#F4F4F4" cx="558.031" cy="231.041" r="15.875"/>
	</g>
	<g>
		<path fill="#F4F4F4" d="M493.915,274.895c0,10.025-8.127,18.153-18.154,18.153c-10.028,0-18.155-8.128-18.155-18.153
			c0-10.029,8.127-18.155,18.155-18.155C485.788,256.739,493.915,264.865,493.915,274.895z"/>
	</g>
	<circle fill="#F4F4F4" cx="394.01" cy="199.407" r="5.594"/>
	<circle fill="#F4F4F4" cx="557.738" cy="199.407" r="5.595"/>
	<circle fill="#F4F4F4" cx="475.501" cy="238.08" r="5.927"/>
	<path fill="#F4F4F4" d="M564.249,199.386"/>
	<path fill="#F4F4F4" d="M475.617,42.911c-48.938,0-88.609,39.67-88.609,88.609c0,48.936,39.671,88.608,88.609,88.608
		c48.937,0,88.608-39.672,88.608-88.608C564.225,82.581,524.554,42.911,475.617,42.911z M475.617,205.359
		c-40.781,0-73.841-33.061-73.841-73.839c0-40.785,33.06-73.842,73.841-73.842c40.78,0,73.842,33.058,73.842,73.842
		C549.459,172.299,516.397,205.359,475.617,205.359z"/>
	<rect x="115" y="201" fill="#F4F4F4" width="76" height="19"/>
	<rect x="119" y="92" fill="#F4F4F4" width="19" height="128"/>
	<rect x="19" y="92" fill="#F4F4F4" width="19" height="128"/>
	<g>
		<polygon fill="#F4F4F4" points="67.751,147 6,147 6,165 59.956,165 		"/>
	</g>
	<path fill="#F4F4F4" d="M540.996,131.517c0,35.883-29.09,64.971-64.968,64.971c-35.883,0-64.972-29.088-64.972-64.971
		c0-35.879,29.089-64.969,64.972-64.969C511.906,66.548,540.996,95.638,540.996,131.517z"/>
	<rect x="467" y="6" fill="#F4F4F4" width="18" height="28"/>
	<rect x="469" y="6" fill="#F4F4F4" width="14" height="28"/>
	<rect x="467" y="6" fill="#F4F4F4" width="17" height="28"/>
	<g>
		<polygon fill="#F4F4F4" points="68.219,146 6,146 6,165 59.523,165 		"/>
	</g>
	<g>
		<g>
			<path fill="#F4F4F4" d="M1102.893,200.682v3.384h-5.719v15.729h-4.02v-15.729h-5.745v-3.384H1102.893z"/>
			<path fill="#F4F4F4" d="M1117.906,200.682h5.746v19.112h-3.721v-12.928c0-0.372,0.003-0.893,0.012-1.562
				c0.01-0.67,0.014-1.187,0.014-1.55l-3.621,16.04h-3.883l-3.597-16.04c0,0.363,0.005,0.88,0.013,1.55
				c0.01,0.67,0.014,1.19,0.014,1.562v12.928h-3.722v-19.112h5.812l3.479,15.028L1117.906,200.682z"/>
		</g>
	</g>
</g>
</svg>
