<?xml version="1.0" encoding="utf-8"?>
<!-- Generator: Adobe Illustrator 16.0.0, SVG Export Plug-In . SVG Version: 6.00 Build 0)  -->
<!DOCTYPE svg PUBLIC "-//W3C//DTD SVG 1.1//EN" "http://www.w3.org/Graphics/SVG/1.1/DTD/svg11.dtd">
<svg version="1.1" id="Capa_1" xmlns="http://www.w3.org/2000/svg" xmlns:xlink="http://www.w3.org/1999/xlink" x="0px" y="0px"
	 width="908px" height="161.929px" viewBox="0 84.397 908 161.929" enable-background="new 0 84.397 908 161.929"
	 xml:space="preserve">
<g>
	<g>
		<path fill="#262424" d="M41.593,131.284l33.655,33.654c1.068,1.071,1.603,2.366,1.603,3.895c0,1.525-0.535,2.823-1.603,3.891
			c-1.068,1.03-2.367,1.545-3.892,1.545c-1.488,0-2.767-0.515-3.834-1.545l-43.041-43.041c-1.069-1.068-1.603-2.365-1.603-3.891
			c0-1.526,0.534-2.822,1.603-3.891c1.068-1.068,2.365-1.604,3.892-1.604H52.01c11.292,0,20.967,4.026,29.018,12.076
			c8.013,8.013,12.02,17.667,12.02,28.96c0,11.333-4.007,21.006-12.02,29.019c-8.051,8.014-17.726,12.02-29.018,12.02H29.174
			c-1.526,0-2.825-0.535-3.894-1.604c-1.068-1.066-1.602-2.364-1.602-3.89v-48.479c0-2.442,1.125-4.122,3.376-5.038
			c0.803-0.344,1.565-0.516,2.29-0.516c1.335,0,2.556,0.574,3.664,1.717l31.366,31.308c1.067,1.068,1.601,2.347,1.601,3.836
			c0,1.525-0.534,2.82-1.601,3.89c-1.072,1.068-2.368,1.603-3.892,1.603c-1.528,0-2.826-0.534-3.894-1.603L34.61,161.619v29.823
			h17.4c8.278,0,15.359-2.939,21.233-8.816c5.914-5.877,8.872-12.975,8.872-21.293c0-8.278-2.958-15.357-8.872-21.232
			c-5.875-5.877-12.955-8.816-21.233-8.816L41.593,131.284L41.593,131.284z"/>
		<path fill="#262424" d="M127.032,172.723v18.718h36.174c1.484,0,2.763,0.531,3.832,1.6s1.603,2.348,1.603,3.837
			c0,1.525-0.535,2.823-1.603,3.89c-1.068,1.068-2.347,1.604-3.832,1.604h-41.611c-1.528,0-2.824-0.535-3.895-1.604
			c-1.068-1.066-1.6-2.364-1.6-3.89v-71.087c0-1.525,0.531-2.822,1.6-3.891c1.07-1.068,2.367-1.604,3.895-1.604h41.611
			c1.484,0,2.763,0.535,3.832,1.604s1.603,2.366,1.603,3.891c0,1.527-0.535,2.823-1.603,3.892c-1.068,1.07-2.347,1.602-3.832,1.602
			h-36.174v30.508h29.991c1.525,0,2.821,0.535,3.89,1.601c1.071,1.071,1.605,2.367,1.605,3.892c0,1.489-0.535,2.768-1.605,3.836
			c-1.068,1.069-2.364,1.603-3.89,1.603L127.032,172.723L127.032,172.723z"/>
		<path fill="#262424" d="M202.621,172.723v18.718h36.172c1.486,0,2.766,0.531,3.833,1.6c1.069,1.068,1.604,2.348,1.604,3.837
			c0,1.525-0.534,2.823-1.604,3.89c-1.068,1.068-2.346,1.604-3.833,1.604h-41.609c-1.528,0-2.824-0.535-3.895-1.604
			c-1.066-1.066-1.601-2.364-1.601-3.89v-71.087c0-1.525,0.535-2.822,1.601-3.891c1.071-1.068,2.366-1.604,3.895-1.604h41.609
			c1.486,0,2.766,0.535,3.833,1.604c1.069,1.069,1.604,2.366,1.604,3.891c0,1.527-0.534,2.823-1.604,3.892
			c-1.068,1.07-2.346,1.602-3.833,1.602h-36.172v30.508h29.992c1.525,0,2.823,0.535,3.889,1.601
			c1.071,1.071,1.605,2.367,1.605,3.892c0,1.489-0.534,2.768-1.605,3.836c-1.066,1.069-2.364,1.603-3.889,1.603L202.621,172.723
			L202.621,172.723z"/>
		<path fill="#262424" d="M294.583,161.734h2.061c4.196,0,7.783-1.488,10.759-4.465c2.975-2.976,4.465-6.563,4.465-10.758
			c0-4.198-1.489-7.787-4.465-10.761c-2.976-2.976-6.563-4.466-10.759-4.466h-23.867c-1.528,0-2.824-0.532-3.895-1.602
			c-1.066-1.068-1.601-2.365-1.601-3.892c0-1.525,0.535-2.822,1.601-3.891c1.07-1.068,2.366-1.604,3.895-1.604h23.867
			c7.21,0,13.373,2.577,18.487,7.726c5.11,5.115,7.668,11.276,7.668,18.49c0,7.209-2.558,13.373-7.668,18.487
			c-5.115,5.112-11.277,7.667-18.487,7.667h-18.029v24.212c0,1.525-0.536,2.823-1.603,3.89c-1.069,1.068-2.347,1.604-3.836,1.604
			c-1.525,0-2.824-0.535-3.892-1.604c-1.068-1.066-1.601-2.364-1.601-3.89v-29.648c0-1.528,0.532-2.824,1.601-3.895
			c1.068-1.067,2.367-1.601,3.892-1.601h5.954l-10.248-10.245c-1.066-1.069-1.601-2.365-1.601-3.892
			c0-1.488,0.535-2.767,1.601-3.835c1.071-1.068,2.367-1.603,3.895-1.603c1.486,0,2.765,0.535,3.833,1.603L294.583,161.734z"/>
	</g>
	<g>
		<path fill="#262424" d="M380.098,165.775c-5.174-5.178-7.765-11.416-7.765-18.715c0-7.335,2.591-13.573,7.765-18.716
			c5.179-5.175,11.417-7.765,18.715-7.765c7.301,0,13.539,2.589,18.716,7.765c5.178,5.143,7.768,11.381,7.768,18.716
			c0,1.403-0.506,2.607-1.511,3.613c-1.008,1.007-2.229,1.51-3.668,1.51c-1.402,0-2.609-0.503-3.614-1.51
			c-1.007-1.006-1.508-2.211-1.508-3.613c0-4.458-1.583-8.27-4.75-11.434c-3.163-3.165-6.975-4.747-11.434-4.747
			c-4.457,0-8.268,1.582-11.433,4.747c-3.165,3.164-4.746,6.976-4.746,11.434c0,4.458,1.582,8.251,4.746,11.38
			c3.165,3.164,6.976,4.746,11.433,4.746c1.438,0,2.663,0.505,3.667,1.511c1.008,1.007,1.511,2.23,1.511,3.668
			c0,1.403-0.502,2.608-1.511,3.612c-1.005,1.008-2.23,1.511-3.667,1.511C391.515,173.487,385.276,170.917,380.098,165.775z
			 M380.098,194.467c-5.174-5.176-7.765-11.414-7.765-18.714c0-1.438,0.501-2.661,1.511-3.667c1.007-1.006,2.229-1.51,3.667-1.51
			c1.403,0,2.606,0.504,3.612,1.51c1.008,1.007,1.511,2.229,1.511,3.667c0,4.458,1.582,8.271,4.746,11.434
			c3.165,3.163,6.976,4.744,11.433,4.744c4.459,0,8.271-1.581,11.434-4.744c3.166-3.163,4.75-6.976,4.75-11.434
			c0-4.46-1.583-8.27-4.75-11.435c-3.163-3.163-6.975-4.746-11.434-4.746c-1.437,0-2.66-0.503-3.666-1.51s-1.511-2.211-1.511-3.614
			c0-1.438,0.505-2.66,1.511-3.667c1.006-1.006,2.229-1.51,3.666-1.51c7.301,0,13.539,2.588,18.715,7.766
			c5.178,5.178,7.768,11.417,7.768,18.714c0,7.3-2.59,13.539-7.768,18.715c-5.177,5.177-11.415,7.766-18.715,7.766
			C391.515,202.234,385.276,199.645,380.098,194.467z"/>
		<path fill="#262424" d="M457.374,190.261c-7.982-7.983-11.976-17.6-11.976-28.855c0-11.252,3.993-20.872,11.976-28.853
			c7.98-7.982,17.599-11.973,28.855-11.973c11.252,0,20.872,3.991,28.854,11.973c7.979,7.981,11.973,17.601,11.973,28.853
			c0,11.256-3.993,20.872-11.973,28.855c-7.981,7.98-17.603,11.974-28.854,11.974C474.972,202.234,465.353,198.241,457.374,190.261z
			 M464.655,139.834c-5.969,5.967-8.955,13.16-8.955,21.571c0,8.414,2.986,15.605,8.955,21.575
			c5.968,5.968,13.157,8.951,21.574,8.951c8.412,0,15.604-2.982,21.572-8.951c5.968-5.97,8.95-13.161,8.95-21.575
			c0-8.411-2.982-15.604-8.95-21.572c-5.969-5.968-13.16-8.954-21.572-8.954C477.812,130.88,470.623,133.865,464.655,139.834z"/>
		<path fill="#262424" d="M594.028,176.508l-36.137-36.134V194.9c0,1.438-0.504,2.66-1.508,3.666
			c-1.009,1.01-2.214,1.512-3.616,1.512c-1.438,0-2.66-0.503-3.667-1.512c-1.007-1.006-1.51-2.229-1.51-3.666v-66.985
			c0-2.301,1.062-3.883,3.18-4.746c0.756-0.325,1.477-0.487,2.159-0.487c1.257,0,2.406,0.522,3.453,1.564l37.646,37.647v-33.979
			c0-1.438,0.502-2.66,1.508-3.669c1.009-1.006,2.232-1.51,3.67-1.51c1.402,0,2.604,0.504,3.613,1.51
			c1.006,1.009,1.512,2.231,1.512,3.669v66.986c0,1.438-0.506,2.659-1.512,3.667c-1.01,1.008-2.211,1.511-3.613,1.511
			c-1.438,0-2.661-0.503-3.67-1.511c-1.006-1.008-1.508-2.229-1.508-3.667V176.508L594.028,176.508z"/>
		<path fill="#262424" d="M636.407,190.261c-7.982-7.983-11.974-17.6-11.974-28.855c0-11.252,3.991-20.872,11.974-28.853
			c7.982-7.982,17.601-11.973,28.854-11.973c11.254,0,20.872,3.991,28.855,11.973c7.981,7.981,11.974,17.601,11.974,28.853
			c0,11.256-3.992,20.872-11.974,28.855c-7.983,7.98-17.602,11.974-28.855,11.974C654.008,202.234,644.39,198.241,636.407,190.261z
			 M643.689,139.834c-5.971,5.967-8.954,13.16-8.954,21.571c0,8.414,2.982,15.605,8.954,21.575
			c5.967,5.968,13.159,8.951,21.571,8.951c8.414,0,15.605-2.982,21.574-8.951c5.968-5.97,8.953-13.161,8.953-21.575
			c0-8.411-2.984-15.604-8.953-21.572s-13.16-8.954-21.574-8.954C656.849,130.88,649.657,133.865,643.689,139.834z"/>
		<path fill="#262424" d="M748.089,172.086h-10.787V194.9c0,1.438-0.501,2.66-1.509,3.666c-1.006,1.01-2.211,1.512-3.613,1.512
			c-1.438,0-2.664-0.502-3.669-1.512c-1.005-1.006-1.51-2.229-1.51-3.666v-27.939c0-1.438,0.505-2.659,1.51-3.668
			c1.005-1.004,2.231-1.51,3.669-1.51h5.608l-9.654-9.653c-1.009-1.007-1.512-2.231-1.512-3.667c0-1.403,0.503-2.608,1.512-3.614
			c1.008-1.005,2.227-1.511,3.668-1.511c1.403,0,2.606,0.506,3.613,1.511l16.938,16.935h1.94c3.955,0,7.334-1.402,10.137-4.207
			c2.807-2.803,4.206-6.184,4.206-10.138c0-3.955-1.4-7.335-4.206-10.141c-2.803-2.805-6.182-4.207-10.137-4.207h-22.491
			c-1.441,0-2.66-0.503-3.669-1.509c-1.008-1.008-1.511-2.231-1.511-3.668c0-1.438,0.503-2.66,1.511-3.669
			c1.009-1.006,2.228-1.51,3.669-1.51h22.491c6.794,0,12.6,2.428,17.419,7.281c4.817,4.819,7.229,10.625,7.229,17.421
			c0,6.796-2.411,12.603-7.229,17.42c-2.985,2.985-6.346,5.05-10.085,6.201l20.227,20.227c1.005,1.008,1.51,2.212,1.51,3.613
			c0,1.438-0.505,2.66-1.51,3.667c-1.01,1.009-2.213,1.511-3.615,1.511c-1.438,0-2.661-0.502-3.668-1.511L748.089,172.086z"/>
		<path fill="#262424" d="M815.44,190.261c-7.984-7.983-11.977-17.6-11.977-28.855c0-11.252,3.992-20.872,11.977-28.853
			c7.981-7.982,17.598-11.973,28.854-11.973c11.253,0,20.873,3.991,28.853,11.973c7.983,7.981,11.975,17.601,11.975,28.853
			c0,11.256-3.991,20.872-11.975,28.855c-7.979,7.98-17.601,11.974-28.853,11.974C833.038,202.234,823.422,198.241,815.44,190.261z
			 M822.719,139.834c-5.968,5.967-8.951,13.16-8.951,21.571c0,8.414,2.982,15.605,8.951,21.575
			c5.97,5.968,13.159,8.951,21.576,8.951c8.413,0,15.601-2.982,21.572-8.951c5.969-5.97,8.953-13.161,8.953-21.575
			c0-8.411-2.983-15.604-8.953-21.572c-5.972-5.968-13.159-8.954-21.572-8.954C835.878,130.88,828.689,133.865,822.719,139.834z"/>
		<path fill="none" stroke="#262424" stroke-width="2.5" stroke-miterlimit="10" d="M642.708,161.465
			c0-12.606,10.22-22.822,22.824-22.822c12.6,0,22.822,10.216,22.822,22.822c0,12.604-10.223,22.821-22.822,22.821
			C652.928,184.286,642.708,174.069,642.708,161.465z"/>
		<path fill="none" stroke="#262424" stroke-width="2.5" stroke-miterlimit="10" d="M677.57,148.271
			c3.547,3.237,5.775,7.896,5.775,13.082c0,5.293-2.322,10.044-6.004,13.287"/>
		<path opacity="0.5" fill="none" stroke="#FFF02D" stroke-width="2.5" stroke-miterlimit="10" enable-background="new    " d="
			M677.57,148.271"/>
		<path opacity="0.5" fill="none" stroke="#FFF02D" stroke-width="2.5" stroke-miterlimit="10" enable-background="new    " d="
			M653.353,148.614"/>
		<path fill="none" stroke="#262424" stroke-width="2.5" stroke-miterlimit="10" d="M653.16,174.865
			c-3.448-3.231-5.556-8.528-5.216-13.513c0.338-4.992,2.072-9.52,5.407-12.738"/>
		<path fill="none" stroke="#262424" stroke-width="2.44" stroke-miterlimit="10" d="M652.722,161.632
			c0-6.983,5.662-12.643,12.646-12.643c6.978,0,12.642,5.659,12.642,12.643c0,6.981-5.664,12.639-12.642,12.639
			C658.384,174.271,652.722,168.613,652.722,161.632z"/>
		<circle fill="none" stroke="#262424" stroke-width="2.5" stroke-miterlimit="10" cx="665.532" cy="161.465" r="3.311"/>
	</g>
</g>
<g>
	<path fill="#FFFFFF" d="M220.913,444.428l59.768,59.77c1.898,1.898,2.847,4.203,2.847,6.914s-0.948,5.018-2.847,6.912
		c-1.897,1.828-4.202,2.742-6.911,2.742c-2.641,0-4.912-0.914-6.81-2.742l-76.438-76.439c-1.897-1.896-2.846-4.199-2.846-6.91
		c0-2.709,0.948-5.014,2.846-6.91c1.898-1.897,4.203-2.85,6.912-2.85h41.982c20.053,0,37.233,7.15,51.534,21.446
		c14.228,14.231,21.346,31.376,21.346,51.435c0,20.125-7.118,37.305-21.346,51.535c-14.301,14.232-31.481,21.346-51.534,21.346
		h-40.557c-2.714,0-5.02-0.948-6.917-2.847c-1.897-1.896-2.842-4.198-2.842-6.909v-86.096c0-4.337,1.996-7.32,5.993-8.947
		c1.426-0.608,2.782-0.914,4.07-0.914c2.369,0,4.537,1.019,6.504,3.051l55.703,55.6c1.897,1.9,2.846,4.169,2.846,6.812
		c0,2.711-0.948,5.014-2.846,6.91c-1.902,1.897-4.203,2.846-6.912,2.846c-2.713,0-5.019-0.947-6.912-2.846l-39.033-39.033v52.963
		h30.902c14.699,0,27.273-5.219,37.71-15.655c10.501-10.438,15.756-23.041,15.756-37.815c0-14.701-5.255-27.273-15.756-37.707
		c-10.437-10.438-23.011-15.658-37.71-15.658h-18.502V444.428z"/>
	<path fill="#FFFFFF" d="M372.647,518.023v33.24h64.246c2.638,0,4.907,0.947,6.806,2.843c1.896,1.899,2.847,4.169,2.847,6.813
		c0,2.711-0.949,5.014-2.847,6.908c-1.897,1.897-4.168,2.848-6.806,2.848h-73.9c-2.713,0-5.014-0.949-6.916-2.848
		c-1.897-1.896-2.842-4.197-2.842-6.908V434.674c0-2.709,0.944-5.014,2.842-6.91c1.902-1.897,4.203-2.85,6.916-2.85h73.9
		c2.638,0,4.907,0.951,6.806,2.85c1.897,1.897,2.847,4.201,2.847,6.91c0,2.711-0.949,5.014-2.847,6.91
		c-1.897,1.9-4.168,2.846-6.806,2.846h-64.246v54.181h53.265c2.709,0,5.01,0.949,6.908,2.845c1.9,1.899,2.851,4.203,2.851,6.912
		c0,2.645-0.949,4.915-2.851,6.811c-1.898,1.897-4.199,2.848-6.908,2.848h-53.265V518.023z"/>
	<path fill="#FFFFFF" d="M506.893,518.023v33.24h64.242c2.642,0,4.911,0.947,6.81,2.843c1.896,1.899,2.847,4.169,2.847,6.813
		c0,2.711-0.949,5.014-2.847,6.908c-1.897,1.897-4.168,2.848-6.81,2.848h-73.896c-2.713,0-5.015-0.949-6.916-2.848
		c-1.895-1.896-2.842-4.197-2.842-6.908V434.674c0-2.709,0.947-5.014,2.842-6.91c1.901-1.897,4.203-2.85,6.916-2.85h73.896
		c2.642,0,4.911,0.951,6.81,2.85c1.897,1.897,2.847,4.201,2.847,6.91c0,2.711-0.949,5.014-2.847,6.91
		c-1.897,1.9-4.168,2.846-6.81,2.846h-64.242v54.181h53.266c2.709,0,5.015,0.949,6.906,2.845c1.902,1.899,2.852,4.203,2.852,6.912
		c0,2.645-0.948,4.915-2.852,6.811c-1.893,1.897-4.197,2.848-6.906,2.848h-53.266V518.023z"/>
	<path fill="#FFFFFF" d="M670.215,498.508h3.658c7.452,0,13.823-2.644,19.107-7.931c5.285-5.284,7.931-11.653,7.931-19.106
		c0-7.455-2.646-13.827-7.931-19.109c-5.284-5.287-11.655-7.932-19.107-7.932h-42.386c-2.714,0-5.016-0.944-6.916-2.846
		c-1.895-1.896-2.843-4.199-2.843-6.91c0-2.709,0.948-5.014,2.843-6.91c1.9-1.897,4.202-2.85,6.916-2.85h42.386
		c12.806,0,23.749,4.574,32.833,13.721c9.076,9.086,13.618,20.025,13.618,32.836c0,12.806-4.542,23.75-13.618,32.832
		c-9.084,9.08-20.027,13.617-32.833,13.617h-32.02v43c0,2.711-0.952,5.015-2.846,6.909c-1.896,1.897-4.169,2.847-6.812,2.847
		c-2.709,0-5.016-0.948-6.912-2.847c-1.897-1.896-2.842-4.198-2.842-6.909v-52.654c0-2.711,0.943-5.014,2.842-6.914
		c1.896-1.896,4.203-2.844,6.912-2.844h10.574l-18.198-18.194c-1.895-1.897-2.843-4.201-2.843-6.912
		c0-2.644,0.948-4.913,2.843-6.812c1.9-1.896,4.202-2.847,6.916-2.847c2.64,0,4.911,0.949,6.809,2.847L670.215,498.508z"/>
</g>
<path fill="#FFFFFF" d="M27.099,676.375c-8.887-8.892-13.335-19.601-13.335-32.135c0-12.594,4.448-23.305,13.335-32.136
	c8.891-8.888,19.602-13.332,32.134-13.332c12.535,0,23.247,4.444,32.134,13.332c8.891,8.831,13.338,19.542,13.338,32.136
	c0,2.408-0.867,4.479-2.593,6.204c-1.729,1.729-3.829,2.593-6.298,2.593c-2.408,0-4.478-0.863-6.203-2.593
	c-1.73-1.728-2.594-3.796-2.594-6.204c0-7.654-2.717-14.199-8.152-19.632c-5.431-5.435-11.978-8.149-19.632-8.149
	c-7.655,0-14.197,2.717-19.633,8.149c-5.431,5.433-8.148,11.978-8.148,19.632s2.718,14.167,8.148,19.54
	c5.436,5.433,11.978,8.147,19.633,8.147c2.468,0,4.571,0.867,6.298,2.594c1.729,1.73,2.593,3.83,2.593,6.298
	c0,2.409-0.863,4.479-2.593,6.204c-1.727,1.729-3.83,2.593-6.298,2.593C46.7,689.616,35.989,685.203,27.099,676.375z M27.099,725.64
	c-8.887-8.89-13.335-19.599-13.335-32.134c0-2.47,0.863-4.568,2.593-6.299c1.73-1.726,3.83-2.591,6.299-2.591
	c2.408,0,4.473,0.865,6.203,2.591c1.73,1.729,2.593,3.829,2.593,6.299c0,7.655,2.718,14.198,8.148,19.632
	c5.436,5.432,11.978,8.147,19.633,8.147c7.654,0,14.201-2.717,19.632-8.147c5.436-5.434,8.152-11.977,8.152-19.632
	c0-7.654-2.717-14.199-8.152-19.634c-5.431-5.431-11.978-8.147-19.632-8.147c-2.469,0-4.568-0.864-6.294-2.594
	c-1.73-1.728-2.593-3.797-2.593-6.205c0-2.469,0.862-4.567,2.593-6.295c1.726-1.729,3.825-2.594,6.294-2.594
	c12.535,0,23.247,4.443,32.134,13.334c8.891,8.891,13.338,19.604,13.338,32.135c0,12.535-4.447,23.244-13.338,32.134
	c-8.887,8.889-19.599,13.337-32.134,13.337C46.7,738.977,35.989,734.528,27.099,725.64z"/>
<path fill="#FFFFFF" d="M159.78,718.414c-13.703-13.703-20.561-30.217-20.561-49.542c0-19.321,6.856-35.839,20.561-49.542
	c13.704-13.705,30.22-20.558,49.547-20.558c19.319,0,35.839,6.853,49.543,20.558c13.703,13.703,20.56,30.221,20.56,49.542
	c0,19.325-6.856,35.839-20.56,49.542c-13.704,13.706-30.224,20.562-49.543,20.562C190,738.977,173.484,732.12,159.78,718.414z
	 M172.282,631.831c-10.248,10.248-15.374,22.597-15.374,37.041c0,14.446,5.126,26.794,15.374,37.046
	c10.247,10.245,22.595,15.368,37.045,15.368c14.442,0,26.789-5.123,37.041-15.368c10.243-10.253,15.369-22.6,15.369-37.046
	c0-14.444-5.126-26.793-15.369-37.041c-10.252-10.247-22.599-15.372-37.041-15.372C194.877,616.459,182.529,621.584,172.282,631.831
	z"/>
<path fill="#FFFFFF" d="M394.42,694.803l-62.044-62.045v93.623c0,2.47-0.867,4.568-2.593,6.297c-1.73,1.729-3.8,2.594-6.208,2.594
	c-2.469,0-4.567-0.863-6.294-2.594c-1.729-1.729-2.593-3.827-2.593-6.297V611.366c0-3.95,1.82-6.667,5.461-8.147
	c1.297-0.56,2.533-0.838,3.705-0.838c2.159,0,4.134,0.896,5.929,2.688l64.637,64.64v-58.342c0-2.469,0.863-4.568,2.593-6.298
	c1.73-1.729,3.83-2.595,6.298-2.595c2.409,0,4.475,0.865,6.204,2.595s2.598,3.829,2.598,6.298v115.016
	c0,2.47-0.867,4.568-2.598,6.297c-1.729,1.729-3.795,2.594-6.204,2.594c-2.468,0-4.566-0.863-6.298-2.594
	c-1.729-1.729-2.593-3.827-2.593-6.297V694.803L394.42,694.803z"/>
<path fill="#FFFFFF" d="M467.188,718.414c-13.707-13.703-20.56-30.217-20.56-49.542c0-19.321,6.853-35.839,20.56-49.542
	c13.705-13.705,30.222-20.558,49.543-20.558c19.324,0,35.839,6.853,49.543,20.558c13.707,13.703,20.56,30.221,20.56,49.542
	c0,19.325-6.853,35.839-20.56,49.542c-13.705,13.706-30.219,20.562-49.543,20.562C497.408,738.977,480.893,732.12,467.188,718.414z
	 M479.689,631.831c-10.252,10.248-15.374,22.597-15.374,37.041c0,14.446,5.122,26.794,15.374,37.046
	c10.248,10.245,22.596,15.368,37.041,15.368c14.446,0,26.793-5.123,37.045-15.368c10.244-10.253,15.369-22.6,15.369-37.046
	c0-14.444-5.125-26.793-15.369-37.041c-10.252-10.247-22.599-15.372-37.045-15.372C502.285,616.459,489.938,621.584,479.689,631.831
	z"/>
<path fill="#FFFFFF" d="M658.947,687.209h-18.521v39.174c0,2.469-0.862,4.567-2.594,6.296c-1.725,1.729-3.795,2.594-6.203,2.594
	c-2.469,0-4.572-0.863-6.299-2.594c-1.726-1.729-2.592-3.827-2.592-6.296v-47.972c0-2.469,0.866-4.567,2.592-6.298
	c1.727-1.727,3.83-2.593,6.299-2.593h9.629l-16.573-16.574c-1.73-1.729-2.595-3.829-2.595-6.298c0-2.408,0.863-4.477,2.595-6.205
	c1.729-1.727,3.823-2.594,6.297-2.594c2.408,0,4.475,0.867,6.203,2.594l29.082,29.077h3.332c6.791,0,12.596-2.406,17.407-7.224
	c4.816-4.812,7.222-10.617,7.222-17.408s-2.404-12.594-7.222-17.411c-4.812-4.814-10.616-7.224-17.407-7.224h-38.617
	c-2.474,0-4.568-0.865-6.297-2.591c-1.73-1.729-2.595-3.829-2.595-6.298s0.863-4.568,2.595-6.298
	c1.729-1.729,3.823-2.595,6.297-2.595H669.6c11.668,0,21.638,4.17,29.91,12.502c8.271,8.275,12.41,18.244,12.41,29.912
	c0,11.67-4.139,21.641-12.41,29.912c-5.127,5.127-10.896,8.672-17.313,10.646l34.727,34.729c1.728,1.73,2.594,3.798,2.594,6.205
	c0,2.47-0.866,4.568-2.594,6.297c-1.729,1.729-3.799,2.594-6.207,2.594c-2.469,0-4.567-0.863-6.295-2.594L658.947,687.209z"/>
<path fill="#FFFFFF" d="M774.592,718.414c-13.713-13.703-20.563-30.217-20.563-49.542c0-19.321,6.852-35.839,20.563-49.542
	c13.703-13.705,30.215-20.558,49.541-20.558c19.324,0,35.84,6.853,49.543,20.558c13.707,13.703,20.562,30.221,20.562,49.542
	c0,19.325-6.854,35.839-20.562,49.542c-13.703,13.706-30.219,20.562-49.543,20.562C804.807,738.977,788.295,732.12,774.592,718.414z
	 M787.088,631.831c-10.248,10.248-15.369,22.597-15.369,37.041c0,14.446,5.121,26.794,15.369,37.046
	c10.252,10.245,22.596,15.368,37.045,15.368c14.447,0,26.789-5.123,37.041-15.368c10.248-10.253,15.375-22.6,15.375-37.046
	c0-14.444-5.127-26.793-15.375-37.041c-10.252-10.247-22.594-15.372-37.041-15.372C809.684,616.459,797.34,621.584,787.088,631.831z
	"/>
<g>
	<path fill="#FFFFFF" d="M517.193,709.408c-22.297,0-40.438-18.14-40.438-40.436c0-22.297,18.142-40.436,40.438-40.436
		s40.438,18.139,40.438,40.436C557.631,691.269,539.49,709.408,517.193,709.408z M517.193,631.038
		c-20.919,0-37.938,17.019-37.938,37.935c0,20.918,17.02,37.937,37.938,37.937s37.938-17.019,37.938-37.937
		S538.112,631.038,517.193,631.038z"/>
</g>
<g>
	<path fill="#FFFFFF" d="M538.297,692.529l-1.652-1.877c6.284-5.533,9.89-13.506,9.89-21.875c0-8.172-3.467-16.021-9.511-21.535
		l1.686-1.848c6.562,5.986,10.325,14.51,10.325,23.383C549.033,677.864,545.12,686.521,538.297,692.529z"/>
</g>
<g opacity="0.5">
	<path fill="#FFFFFF" d="M537.865,646.318"/>
</g>
<g opacity="0.5">
	<path fill="#FFFFFF" d="M496.283,646.906"/>
</g>
<g>
	<path fill="#FFFFFF" d="M495.097,692.891c-6.279-5.883-9.948-15.383-9.348-24.198c0.633-9.351,3.976-17.194,9.666-22.687
		l1.736,1.799c-5.237,5.055-8.317,12.334-8.908,21.057c-0.554,8.1,2.809,16.814,8.562,22.206L495.097,692.891z"/>
</g>
<g>
	<path fill="#FFFFFF" d="M516.91,692.184c-12.645,0-22.93-10.283-22.93-22.924c0-12.643,10.285-22.928,22.93-22.928
		c12.642,0,22.927,10.285,22.927,22.928C539.837,681.9,529.552,692.184,516.91,692.184z M516.91,648.772
		c-11.298,0-20.489,9.19-20.489,20.487c0,11.295,9.191,20.483,20.489,20.483c11.297,0,20.486-9.188,20.486-20.483
		S528.207,648.772,516.91,648.772z"/>
</g>
<g>
	<path fill="#FFFFFF" d="M517.193,675.905c-3.823,0-6.935-3.11-6.935-6.933c0-3.823,3.11-6.933,6.935-6.933
		c3.823,0,6.936,3.109,6.936,6.933C524.129,672.795,521.018,675.905,517.193,675.905z M517.193,664.541
		c-2.444,0-4.435,1.988-4.435,4.432c0,2.445,1.989,4.434,4.435,4.434c2.444,0,4.436-1.988,4.436-4.434
		C521.629,666.529,519.639,664.541,517.193,664.541z"/>
</g>
<g>
	<path fill="#FFFFFF" d="M1031.221,140.771c-13.707-13.703-20.559-30.217-20.559-49.542c0-19.321,6.852-35.839,20.559-49.542
		c13.705-13.706,30.221-20.558,49.543-20.558c19.324,0,35.838,6.852,49.543,20.558c13.707,13.703,20.56,30.221,20.56,49.542
		c0,19.325-6.853,35.839-20.56,49.542c-13.705,13.706-30.219,20.562-49.543,20.562
		C1061.441,161.333,1044.926,154.477,1031.221,140.771z M1043.723,54.188c-10.252,10.248-15.373,22.597-15.373,37.041
		c0,14.446,5.121,26.793,15.373,37.045c10.248,10.246,22.597,15.369,37.041,15.369c14.447,0,26.793-5.123,37.045-15.369
		c10.244-10.252,15.369-22.599,15.369-37.045c0-14.444-5.125-26.793-15.369-37.041c-10.252-10.248-22.598-15.373-37.045-15.373
		C1066.318,38.815,1053.971,43.94,1043.723,54.188z"/>
	<g>
		<path fill="#FFFFFF" d="M1081.227,131.765c-22.297,0-40.438-18.139-40.438-40.436c0-22.296,18.141-40.435,40.438-40.435
			c22.298,0,40.438,18.139,40.438,40.435C1121.664,113.626,1103.523,131.765,1081.227,131.765z M1081.227,53.395
			c-20.918,0-37.938,17.018-37.938,37.935c0,20.918,17.02,37.936,37.938,37.936c20.92,0,37.938-17.018,37.938-37.936
			C1119.164,70.413,1102.146,53.395,1081.227,53.395z"/>
	</g>
	<g>
		<path fill="#FFFFFF" d="M1102.33,114.886l-1.652-1.876c6.284-5.533,9.89-13.507,9.89-21.875c0-8.172-3.468-16.021-9.512-21.536
			l1.687-1.847c6.562,5.986,10.325,14.509,10.325,23.382C1113.066,100.221,1109.153,108.878,1102.33,114.886z"/>
	</g>
	<g opacity="0.5">
		<path fill="#FFFFFF" d="M1101.898,68.675"/>
	</g>
	<g opacity="0.5">
		<path fill="#FFFFFF" d="M1060.316,69.263"/>
	</g>
	<g>
		<path fill="#FFFFFF" d="M1059.13,115.249c-6.28-5.884-9.949-15.383-9.348-24.199c0.633-9.35,3.976-17.195,9.666-22.686
			l1.735,1.799c-5.236,5.053-8.316,12.334-8.907,21.056c-0.554,8.098,2.809,16.814,8.562,22.206L1059.13,115.249z"/>
	</g>
	<g>
		<path fill="#FFFFFF" d="M1080.943,114.541c-12.645,0-22.93-10.284-22.93-22.923c0-12.643,10.285-22.928,22.93-22.928
			c12.642,0,22.927,10.286,22.927,22.928C1103.87,104.257,1093.585,114.541,1080.943,114.541z M1080.943,71.13
			c-11.299,0-20.489,9.19-20.489,20.488c0,11.294,9.19,20.483,20.489,20.483c11.297,0,20.486-9.188,20.486-20.483
			C1101.431,80.32,1092.24,71.13,1080.943,71.13z"/>
	</g>
	<g>
		<path fill="#FFFFFF" d="M1081.227,98.262c-3.822,0-6.934-3.11-6.934-6.933c0-3.822,3.11-6.932,6.934-6.932
			c3.824,0,6.937,3.109,6.937,6.932C1088.162,95.152,1085.051,98.262,1081.227,98.262z M1081.227,86.898
			c-2.443,0-4.434,1.988-4.434,4.432c0,2.444,1.989,4.433,4.434,4.433c2.445,0,4.437-1.988,4.437-4.433
			C1085.662,88.886,1083.672,86.898,1081.227,86.898z"/>
	</g>
</g>
</svg>
