<?xml version="1.0" encoding="utf-8"?>
<!-- Generator: Adobe Illustrator 16.0.0, SVG Export Plug-In . SVG Version: 6.00 Build 0)  -->
<!DOCTYPE svg PUBLIC "-//W3C//DTD SVG 1.1//EN" "http://www.w3.org/Graphics/SVG/1.1/DTD/svg11.dtd">
<svg version="1.1" id="Capa_1" xmlns="http://www.w3.org/2000/svg" xmlns:xlink="http://www.w3.org/1999/xlink" x="0px" y="0px"
	 width="148.871px" height="148.872px" viewBox="0 0 148.871 148.872" enable-background="new 0 0 148.871 148.872"
	 xml:space="preserve">
<g>
	<path fill="#0F0D0D" d="M21.831,127.04C7.276,112.487,0.001,94.954,0.001,74.434c0-20.516,7.275-38.055,21.83-52.605
		C36.383,7.275,53.92,0,74.436,0c20.519,0,38.054,7.276,52.603,21.829c14.557,14.55,21.83,32.089,21.83,52.605
		c0,20.52-7.273,38.055-21.83,52.604c-14.551,14.555-32.086,21.834-52.603,21.834C53.92,148.872,36.383,141.59,21.831,127.04z
		 M35.106,35.103C24.22,45.983,18.782,59.096,18.782,74.434s5.438,28.449,16.324,39.334c10.882,10.881,23.993,16.318,39.33,16.318
		c15.341,0,28.449-5.438,39.335-16.318c10.879-10.887,16.318-23.996,16.318-39.334c0-15.337-5.439-28.45-16.318-39.331
		c-10.887-10.882-23.994-16.325-39.335-16.325C59.099,18.778,45.988,24.221,35.106,35.103z"/>
	<g>
		<path fill="#0F0D0D" d="M74.928,117.475c-23.675,0-42.938-19.262-42.938-42.936c0-23.675,19.262-42.935,42.938-42.935
			c23.675,0,42.937,19.26,42.937,42.935C117.865,98.213,98.604,117.475,74.928,117.475z M74.928,34.26
			c-22.211,0-40.283,18.07-40.283,40.281c0,22.211,18.071,40.282,40.283,40.282c22.212,0,40.285-18.07,40.285-40.282
			C115.211,52.33,97.141,34.26,74.928,34.26z"/>
	</g>
	<g>
		<path fill="#0F0D0D" d="M97.336,99.551l-1.754-1.992c6.674-5.875,10.5-14.342,10.5-23.227c0-8.677-3.682-17.012-10.098-22.868
			l1.789-1.961c6.969,6.356,10.963,15.406,10.963,24.828C108.736,83.981,104.582,93.172,97.336,99.551z"/>
	</g>
	<g opacity="0.5">
		<path fill="#0F0D0D" d="M96.877,50.484"/>
	</g>
	<g opacity="0.5">
		<path fill="#0F0D0D" d="M52.726,51.108"/>
	</g>
	<g>
		<path fill="#0F0D0D" d="M51.467,99.938c-6.668-6.248-10.564-16.334-9.927-25.695c0.673-9.928,4.223-18.258,10.264-24.089
			l1.844,1.911c-5.561,5.365-8.832,13.097-9.459,22.357c-0.587,8.599,2.983,17.854,9.092,23.581L51.467,99.938z"/>
	</g>
	<g>
		<path fill="#0F0D0D" d="M74.627,99.188c-13.425,0-24.346-10.922-24.346-24.341c0-13.425,10.921-24.346,24.346-24.346
			c13.423,0,24.345,10.922,24.345,24.346C98.973,88.266,88.051,99.188,74.627,99.188z M74.627,53.09
			c-11.997,0-21.755,9.758-21.755,21.755c0,11.992,9.759,21.75,21.755,21.75s21.753-9.756,21.753-21.75
			C96.381,62.85,86.623,53.09,74.627,53.09z"/>
	</g>
	<g>
		<path fill="#0F0D0D" d="M74.928,81.901c-4.061,0-7.361-3.303-7.361-7.361s3.301-7.36,7.361-7.36c4.06,0,7.363,3.301,7.363,7.36
			C82.293,78.598,78.988,81.901,74.928,81.901z M74.928,69.834c-2.597,0-4.708,2.111-4.708,4.707c0,2.594,2.111,4.706,4.708,4.706
			c2.597,0,4.71-2.109,4.71-4.706C79.639,71.944,77.525,69.834,74.928,69.834z"/>
	</g>
</g>
</svg>
