<?xml version="1.0" encoding="utf-8"?>
<!-- Generator: Adobe Illustrator 16.0.0, SVG Export Plug-In . SVG Version: 6.00 Build 0)  -->
<!DOCTYPE svg PUBLIC "-//W3C//DTD SVG 1.1//EN" "http://www.w3.org/Graphics/SVG/1.1/DTD/svg11.dtd">
<svg version="1.1" id="Capa_1" xmlns="http://www.w3.org/2000/svg" xmlns:xlink="http://www.w3.org/1999/xlink" x="0px" y="0px"
	 width="153.142px" height="149.538px" viewBox="0 0 153.142 149.538" enable-background="new 0 0 153.142 149.538"
	 xml:space="preserve">
<g>
	<g>
		<path fill="#262424" d="M-956.31-289.623l42.179,42.178c1.339,1.342,2.009,2.966,2.009,4.881c0,1.912-0.67,3.538-2.009,4.877
			c-1.339,1.291-2.966,1.937-4.878,1.937c-1.864,0-3.467-0.646-4.805-1.937l-53.942-53.943c-1.34-1.339-2.009-2.964-2.009-4.877
			c0-1.912,0.669-3.537,2.009-4.877c1.339-1.339,2.964-2.01,4.878-2.01h29.624c14.153,0,26.278,5.046,36.368,15.135
			c10.042,10.043,15.065,22.142,15.065,36.296c0,14.204-5.023,26.326-15.065,36.369c-10.09,10.043-22.215,15.063-36.368,15.063
			h-28.62c-1.913,0-3.54-0.67-4.88-2.009c-1.339-1.336-2.007-2.963-2.007-4.875v-60.758c0-3.061,1.41-5.166,4.231-6.314
			c1.006-0.431,1.962-0.646,2.87-0.646c1.674,0,3.204,0.719,4.592,2.152l39.31,39.238c1.337,1.339,2.007,2.941,2.007,4.808
			c0,1.912-0.67,3.535-2.007,4.875c-1.343,1.339-2.967,2.009-4.878,2.009c-1.915,0-3.542-0.67-4.879-2.009l-27.546-27.545v37.376
			h21.807c10.375,0,19.249-3.684,26.612-11.049c7.412-7.365,11.119-16.261,11.119-26.687c0-10.375-3.707-19.247-11.119-26.61
			c-7.363-7.365-16.237-11.049-26.612-11.049H-956.31z"/>
		<path fill="#262424" d="M-849.229-237.687v23.459h45.337c1.86,0,3.463,0.667,4.802,2.006s2.009,2.941,2.009,4.808
			c0,1.912-0.67,3.539-2.009,4.875c-1.339,1.339-2.941,2.009-4.802,2.009h-52.151c-1.915,0-3.54-0.67-4.881-2.009
			c-1.339-1.336-2.005-2.963-2.005-4.875v-89.093c0-1.912,0.666-3.537,2.005-4.877c1.341-1.339,2.966-2.01,4.881-2.01h52.151
			c1.86,0,3.463,0.671,4.802,2.01c1.339,1.34,2.009,2.965,2.009,4.877c0,1.913-0.67,3.538-2.009,4.877
			c-1.339,1.341-2.941,2.008-4.802,2.008h-45.337v38.235h37.587c1.912,0,3.536,0.67,4.875,2.006
			c1.342,1.343,2.012,2.967,2.012,4.878c0,1.866-0.67,3.469-2.012,4.808c-1.339,1.34-2.963,2.009-4.875,2.009H-849.229z"/>
		<path fill="#262424" d="M-754.494-237.687v23.459h45.335c1.863,0,3.466,0.667,4.805,2.006c1.34,1.339,2.009,2.941,2.009,4.808
			c0,1.912-0.669,3.539-2.009,4.875c-1.339,1.339-2.941,2.009-4.805,2.009h-52.148c-1.915,0-3.539-0.67-4.881-2.009
			c-1.336-1.336-2.006-2.963-2.006-4.875v-89.093c0-1.912,0.67-3.537,2.006-4.877c1.342-1.339,2.966-2.01,4.881-2.01h52.148
			c1.863,0,3.466,0.671,4.805,2.01c1.34,1.34,2.009,2.965,2.009,4.877c0,1.913-0.669,3.538-2.009,4.877
			c-1.339,1.341-2.941,2.008-4.805,2.008h-45.335v38.235h37.589c1.911,0,3.538,0.67,4.874,2.006
			c1.343,1.343,2.012,2.967,2.012,4.878c0,1.866-0.669,3.469-2.012,4.808c-1.336,1.34-2.963,2.009-4.874,2.009H-754.494z"/>
		<path fill="#262424" d="M-639.238-251.459h2.582c5.259,0,9.755-1.865,13.484-5.596c3.729-3.729,5.596-8.225,5.596-13.483
			c0-5.262-1.866-9.759-5.596-13.487c-3.729-3.73-8.226-5.597-13.484-5.597h-29.912c-1.915,0-3.539-0.667-4.881-2.008
			c-1.336-1.339-2.006-2.964-2.006-4.877c0-1.912,0.67-3.537,2.006-4.877c1.342-1.339,2.966-2.01,4.881-2.01h29.912
			c9.037,0,16.76,3.229,23.17,9.683c6.404,6.411,9.61,14.132,9.61,23.173c0,9.035-3.206,16.76-9.61,23.17
			c-6.41,6.407-14.133,9.609-23.17,9.609h-22.596v30.345c0,1.912-0.672,3.539-2.009,4.875c-1.339,1.339-2.941,2.009-4.808,2.009
			c-1.912,0-3.539-0.67-4.878-2.009c-1.339-1.336-2.006-2.963-2.006-4.875v-37.158c0-1.915,0.667-3.539,2.006-4.881
			c1.339-1.337,2.966-2.006,4.878-2.006h7.462l-12.843-12.84c-1.336-1.34-2.006-2.965-2.006-4.878c0-1.865,0.67-3.468,2.006-4.807
			c1.342-1.339,2.966-2.009,4.881-2.009c1.863,0,3.466,0.67,4.805,2.009L-639.238-251.459z"/>
	</g>
	<g>
		<path fill="#262424" d="M-532.063-246.395c-6.485-6.49-9.732-14.307-9.732-23.455c0-9.193,3.247-17.011,9.732-23.457
			c6.49-6.486,14.309-9.731,23.455-9.731c9.15,0,16.968,3.245,23.456,9.731c6.489,6.446,9.735,14.264,9.735,23.457
			c0,1.758-0.633,3.268-1.893,4.528c-1.263,1.263-2.794,1.893-4.597,1.893c-1.758,0-3.27-0.63-4.529-1.893
			c-1.263-1.261-1.891-2.771-1.891-4.528c0-5.587-1.984-10.365-5.952-14.33c-3.964-3.966-8.741-5.949-14.33-5.949
			c-5.586,0-10.362,1.983-14.329,5.949c-3.966,3.965-5.948,8.743-5.948,14.33s1.982,10.341,5.948,14.263
			c3.967,3.965,8.743,5.947,14.329,5.947c1.802,0,3.337,0.634,4.597,1.894c1.263,1.262,1.893,2.795,1.893,4.597
			c0,1.758-0.63,3.269-1.893,4.527c-1.26,1.263-2.795,1.894-4.597,1.894C-517.755-236.729-525.573-239.951-532.063-246.395z
			 M-532.063-210.435c-6.485-6.488-9.732-14.306-9.732-23.455c0-1.802,0.628-3.334,1.894-4.596c1.262-1.261,2.794-1.893,4.596-1.893
			c1.757,0,3.266,0.632,4.527,1.893c1.264,1.262,1.894,2.794,1.894,4.596c0,5.588,1.982,10.365,5.948,14.33
			c3.967,3.964,8.743,5.946,14.329,5.946c5.589,0,10.366-1.982,14.33-5.946c3.968-3.965,5.952-8.742,5.952-14.33
			c0-5.589-1.984-10.364-5.952-14.331c-3.964-3.963-8.741-5.947-14.33-5.947c-1.801,0-3.333-0.631-4.595-1.893
			c-1.261-1.262-1.893-2.771-1.893-4.529c0-1.802,0.632-3.334,1.893-4.596c1.262-1.262,2.794-1.893,4.595-1.893
			c9.15,0,16.968,3.243,23.456,9.733c6.489,6.49,9.735,14.309,9.735,23.455c0,9.149-3.246,16.967-9.735,23.455
			c-6.488,6.488-14.306,9.734-23.456,9.734C-517.755-200.701-525.573-203.947-532.063-210.435z"/>
		<path fill="#262424" d="M-435.215-215.708c-10.003-10.005-15.008-22.058-15.008-36.164c0-14.103,5.005-26.159,15.008-36.161
			c10.002-10.004,22.057-15.006,36.164-15.006c14.103,0,26.16,5.002,36.163,15.006c10.001,10.002,15.006,22.059,15.006,36.161
			c0,14.106-5.005,26.159-15.006,36.164c-10.003,10.002-22.061,15.007-36.163,15.007
			C-413.158-200.701-425.213-205.706-435.215-215.708z M-426.09-278.908c-7.479,7.479-11.222,16.494-11.222,27.036
			c0,10.545,3.742,19.558,11.222,27.04c7.48,7.479,16.491,11.218,27.039,11.218c10.543,0,19.556-3.738,27.037-11.218
			c7.479-7.482,11.218-16.495,11.218-27.04c0-10.542-3.739-19.557-11.218-27.036c-7.481-7.48-16.494-11.222-27.037-11.222
			C-409.599-290.129-418.609-286.388-426.09-278.908z"/>
		<path fill="#262424" d="M-263.945-232.944l-45.29-45.287v68.338c0,1.802-0.632,3.333-1.891,4.595
			c-1.263,1.264-2.774,1.894-4.532,1.894c-1.803,0-3.334-0.63-4.595-1.894c-1.262-1.262-1.892-2.793-1.892-4.595v-83.953
			c0-2.883,1.33-4.866,3.985-5.947c0.947-0.407,1.85-0.611,2.706-0.611c1.575,0,3.016,0.655,4.327,1.961l47.181,47.183v-42.585
			c0-1.802,0.629-3.334,1.891-4.598c1.263-1.261,2.796-1.893,4.599-1.893c1.757,0,3.264,0.632,4.528,1.893
			c1.261,1.264,1.895,2.796,1.895,4.598v83.953c0,1.802-0.634,3.333-1.895,4.595c-1.265,1.264-2.771,1.894-4.528,1.894
			c-1.803,0-3.336-0.63-4.599-1.894c-1.262-1.262-1.891-2.793-1.891-4.595V-232.944z"/>
		<path fill="#262424" d="M-210.832-215.708c-10.005-10.005-15.007-22.058-15.007-36.164c0-14.103,5.002-26.159,15.007-36.161
			c10.003-10.004,22.058-15.006,36.162-15.006s26.159,5.002,36.163,15.006c10.005,10.002,15.007,22.059,15.007,36.161
			c0,14.106-5.002,26.159-15.007,36.164c-10.004,10.002-22.059,15.007-36.163,15.007S-200.829-205.706-210.832-215.708z
			 M-201.706-278.908c-7.483,7.479-11.222,16.494-11.222,27.036c0,10.545,3.738,19.558,11.222,27.04
			c7.479,7.479,16.492,11.218,27.036,11.218c10.545,0,19.558-3.738,27.039-11.218c7.479-7.482,11.22-16.495,11.22-27.04
			c0-10.542-3.74-19.557-11.22-27.036c-7.481-7.48-16.494-11.222-27.039-11.222C-185.214-290.129-194.227-286.388-201.706-278.908z"
			/>
		<path fill="#262424" d="M-70.862-238.486h-13.519v28.593c0,1.802-0.629,3.333-1.892,4.595c-1.261,1.264-2.771,1.894-4.528,1.894
			c-1.802,0-3.339-0.63-4.598-1.894c-1.26-1.262-1.892-2.793-1.892-4.595v-35.016c0-1.802,0.632-3.333,1.892-4.597
			c1.259-1.259,2.796-1.893,4.598-1.893h7.028l-12.1-12.098c-1.263-1.263-1.893-2.796-1.893-4.597c0-1.758,0.63-3.268,1.893-4.529
			c1.264-1.26,2.791-1.894,4.598-1.894c1.759,0,3.266,0.634,4.528,1.894l21.229,21.224h2.432c4.956,0,9.192-1.757,12.705-5.272
			c3.517-3.513,5.271-7.75,5.271-12.706s-1.755-9.193-5.271-12.709c-3.513-3.515-7.749-5.272-12.705-5.272h-28.188
			c-1.807,0-3.334-0.631-4.598-1.891c-1.263-1.264-1.893-2.796-1.893-4.598s0.63-3.334,1.893-4.598
			c1.264-1.261,2.791-1.893,4.598-1.893h28.188c8.515,0,15.791,3.043,21.831,9.126c6.037,6.04,9.06,13.316,9.06,21.834
			c0,8.517-3.022,15.795-9.06,21.833c-3.742,3.741-7.953,6.329-12.639,7.771l25.349,25.35c1.26,1.263,1.893,2.772,1.893,4.529
			c0,1.802-0.633,3.333-1.893,4.595c-1.265,1.264-2.773,1.894-4.53,1.894c-1.803,0-3.336-0.63-4.597-1.894L-70.862-238.486z"/>
		<path fill="#262424" d="M13.549-215.708c-10.008-10.005-15.01-22.058-15.01-36.164c0-14.103,5.002-26.159,15.01-36.161
			c10.003-10.004,22.055-15.006,36.162-15.006c14.104,0,26.16,5.002,36.161,15.006c10.006,10.002,15.008,22.059,15.008,36.161
			c0,14.106-5.002,26.159-15.008,36.164c-10.001,10.002-22.058,15.007-36.161,15.007C35.604-200.701,23.552-205.706,13.549-215.708z
			 M22.67-278.908c-7.479,7.479-11.218,16.494-11.218,27.036c0,10.545,3.738,19.558,11.218,27.04
			c7.483,7.479,16.493,11.218,27.041,11.218c10.545,0,19.553-3.738,27.037-11.218c7.481-7.482,11.221-16.495,11.221-27.04
			c0-10.542-3.739-19.557-11.221-27.036c-7.484-7.48-16.492-11.222-27.037-11.222C39.163-290.129,30.153-286.388,22.67-278.908z"/>
		<path fill="none" stroke="#262424" stroke-width="2.5" stroke-miterlimit="10" d="M-202.937-251.797
			c0-15.799,12.809-28.603,28.606-28.603c15.791,0,28.603,12.804,28.603,28.603c0,15.797-12.812,28.602-28.603,28.602
			C-190.128-223.196-202.937-236-202.937-251.797z"/>
		<path fill="none" stroke="#262424" stroke-width="2.5" stroke-miterlimit="10" d="M-159.243-268.333
			c4.446,4.057,7.239,9.896,7.239,16.395c0,6.633-2.911,12.588-7.526,16.652"/>
		<path opacity="0.5" fill="none" stroke="#FFF02D" stroke-width="2.5" stroke-miterlimit="10" d="M-159.243-268.333"/>
		<path opacity="0.5" fill="none" stroke="#FFF02D" stroke-width="2.5" stroke-miterlimit="10" d="M-189.596-267.904"/>
		<path fill="none" stroke="#262424" stroke-width="2.5" stroke-miterlimit="10" d="M-189.836-235.003
			c-4.322-4.05-6.964-10.688-6.538-16.936c0.425-6.256,2.598-11.931,6.778-15.965"/>
		<path fill="none" stroke="#262424" stroke-width="2.44" stroke-miterlimit="10" d="M-190.386-251.587
			c0-8.752,7.096-15.845,15.848-15.845c8.745,0,15.843,7.093,15.843,15.845c0,8.749-7.098,15.841-15.843,15.841
			C-183.29-235.747-190.386-242.838-190.386-251.587z"/>
		<circle fill="none" stroke="#262424" stroke-width="2.5" stroke-miterlimit="10" cx="-174.331" cy="-251.797" r="4.149"/>
	</g>
</g>
<g>
	<g>
		<path fill="#262424" d="M-783.279,24.021l59.768,59.769c1.898,1.899,2.847,4.203,2.847,6.914s-0.948,5.017-2.847,6.912
			c-1.897,1.828-4.202,2.743-6.911,2.743c-2.641,0-4.912-0.915-6.81-2.743l-76.438-76.439c-1.897-1.897-2.846-4.2-2.846-6.911
			c0-2.709,0.948-5.013,2.846-6.91s4.203-2.849,6.912-2.849h41.982c20.053,0,37.233,7.15,51.534,21.446
			c14.228,14.231,21.346,31.376,21.346,51.434c0,20.126-7.118,37.305-21.346,51.536c-14.301,14.232-31.481,21.346-51.534,21.346
			h-40.557c-2.714,0-5.02-0.949-6.917-2.847c-1.897-1.896-2.842-4.198-2.842-6.909V54.417c0-4.337,1.996-7.32,5.993-8.947
			c1.426-0.609,2.782-0.914,4.07-0.914c2.369,0,4.537,1.018,6.504,3.05l55.703,55.6c1.897,1.9,2.846,4.169,2.846,6.813
			c0,2.711-0.948,5.013-2.846,6.91c-1.902,1.897-4.203,2.846-6.912,2.846c-2.713,0-5.019-0.948-6.912-2.846l-39.033-39.033v52.962
			h30.902c14.699,0,27.273-5.219,37.71-15.655c10.501-10.438,15.756-23.041,15.756-37.815c0-14.702-5.255-27.274-15.756-37.708
			c-10.437-10.437-23.011-15.657-37.71-15.657H-783.279z"/>
		<path fill="#262424" d="M-631.545,97.616v33.241h64.246c2.637,0,4.907,0.946,6.805,2.842c1.897,1.899,2.847,4.169,2.847,6.813
			c0,2.711-0.949,5.014-2.847,6.909c-1.897,1.897-4.168,2.847-6.805,2.847H-641.2c-2.713,0-5.014-0.949-6.916-2.847
			c-1.897-1.896-2.842-4.198-2.842-6.909V14.265c0-2.709,0.944-5.013,2.842-6.91c1.902-1.897,4.203-2.849,6.916-2.849h73.901
			c2.637,0,4.907,0.951,6.805,2.849s2.847,4.201,2.847,6.91c0,2.711-0.949,5.014-2.847,6.911c-1.897,1.9-4.168,2.845-6.805,2.845
			h-64.246v54.181h53.265c2.709,0,5.01,0.949,6.908,2.845c1.901,1.899,2.851,4.203,2.851,6.912c0,2.645-0.949,4.915-2.851,6.811
			c-1.898,1.897-4.199,2.847-6.908,2.847H-631.545z"/>
		<path fill="#262424" d="M-497.3,97.616v33.241h64.242c2.641,0,4.911,0.946,6.809,2.842c1.897,1.899,2.847,4.169,2.847,6.813
			c0,2.711-0.949,5.014-2.847,6.909c-1.897,1.897-4.168,2.847-6.809,2.847h-73.897c-2.713,0-5.014-0.949-6.916-2.847
			c-1.894-1.896-2.842-4.198-2.842-6.909V14.265c0-2.709,0.948-5.013,2.842-6.91c1.902-1.897,4.203-2.849,6.916-2.849h73.897
			c2.641,0,4.911,0.951,6.809,2.849s2.847,4.201,2.847,6.91c0,2.711-0.949,5.014-2.847,6.911c-1.897,1.9-4.168,2.845-6.809,2.845
			H-497.3v54.181h53.265c2.709,0,5.015,0.949,6.907,2.845c1.902,1.899,2.851,4.203,2.851,6.912c0,2.645-0.948,4.915-2.851,6.811
			c-1.893,1.897-4.198,2.847-6.907,2.847H-497.3z"/>
		<path fill="#262424" d="M-333.978,78.099h3.658c7.452,0,13.823-2.643,19.108-7.93c5.285-5.284,7.93-11.653,7.93-19.106
			c0-7.455-2.645-13.828-7.93-19.11c-5.285-5.287-11.656-7.932-19.108-7.932h-42.386c-2.714,0-5.015-0.944-6.916-2.845
			c-1.894-1.897-2.843-4.2-2.843-6.911c0-2.709,0.949-5.013,2.843-6.91c1.901-1.897,4.202-2.849,6.916-2.849h42.386
			c12.806,0,23.749,4.574,32.833,13.721c9.076,9.085,13.618,20.025,13.618,32.836c0,12.805-4.542,23.75-13.618,32.832
			c-9.084,9.079-20.027,13.617-32.833,13.617h-32.019v43c0,2.711-0.953,5.014-2.846,6.909c-1.897,1.897-4.169,2.847-6.813,2.847
			c-2.709,0-5.015-0.949-6.912-2.847c-1.897-1.896-2.842-4.198-2.842-6.909V87.857c0-2.711,0.944-5.014,2.842-6.914
			c1.897-1.896,4.203-2.844,6.912-2.844h10.574l-18.198-18.194c-1.894-1.897-2.843-4.201-2.843-6.912
			c0-2.643,0.949-4.913,2.843-6.811c1.901-1.897,4.202-2.847,6.916-2.847c2.64,0,4.911,0.949,6.809,2.847L-333.978,78.099z"/>
	</g>
	<g>
		<path fill="#262424" d="M-977.094,255.966c-8.887-8.891-13.335-19.6-13.335-32.134c0-12.594,4.448-23.305,13.335-32.136
			c8.891-8.887,19.602-13.332,32.134-13.332c12.535,0,23.247,4.445,32.134,13.332c8.891,8.831,13.338,19.542,13.338,32.136
			c0,2.408-0.867,4.478-2.593,6.204c-1.729,1.729-3.829,2.593-6.298,2.593c-2.408,0-4.478-0.863-6.203-2.593
			c-1.73-1.727-2.594-3.796-2.594-6.204c0-7.654-2.717-14.199-8.152-19.632c-5.431-5.434-11.978-8.15-19.632-8.15
			c-7.655,0-14.197,2.717-19.633,8.15c-5.431,5.433-8.148,11.978-8.148,19.632s2.718,14.167,8.148,19.54
			c5.436,5.433,11.978,8.148,19.633,8.148c2.468,0,4.571,0.867,6.298,2.593c1.729,1.73,2.593,3.83,2.593,6.298
			c0,2.409-0.863,4.479-2.593,6.204c-1.727,1.729-3.83,2.593-6.298,2.593C-957.492,269.208-968.203,264.795-977.094,255.966z
			 M-977.094,305.232c-8.887-8.889-13.335-19.598-13.335-32.134c0-2.469,0.863-4.568,2.593-6.298c1.73-1.726,3.83-2.591,6.299-2.591
			c2.408,0,4.473,0.865,6.203,2.591c1.73,1.729,2.593,3.829,2.593,6.298c0,7.656,2.718,14.199,8.148,19.632
			c5.436,5.432,11.978,8.148,19.633,8.148c7.654,0,14.201-2.717,19.632-8.148c5.436-5.433,8.152-11.976,8.152-19.632
			c0-7.654-2.717-14.199-8.152-19.633c-5.431-5.431-11.978-8.147-19.632-8.147c-2.469,0-4.568-0.865-6.294-2.594
			c-1.73-1.728-2.593-3.797-2.593-6.205c0-2.469,0.862-4.568,2.593-6.296c1.726-1.729,3.825-2.593,6.294-2.593
			c12.535,0,23.247,4.443,32.134,13.334c8.891,8.891,13.338,19.603,13.338,32.134c0,12.536-4.447,23.245-13.338,32.134
			c-8.887,8.889-19.599,13.337-32.134,13.337C-957.492,318.569-968.203,314.121-977.094,305.232z"/>
		<path fill="#262424" d="M-844.412,298.006c-13.703-13.703-20.56-30.217-20.56-49.542c0-19.321,6.856-35.839,20.56-49.542
			c13.704-13.706,30.22-20.558,49.547-20.558c19.319,0,35.839,6.852,49.543,20.558c13.703,13.703,20.56,30.221,20.56,49.542
			c0,19.325-6.856,35.839-20.56,49.542c-13.704,13.706-30.224,20.562-49.543,20.562
			C-814.192,318.569-830.708,311.712-844.412,298.006z M-831.91,211.423c-10.248,10.248-15.374,22.597-15.374,37.041
			c0,14.446,5.126,26.793,15.374,37.045c10.247,10.246,22.595,15.369,37.045,15.369c14.442,0,26.789-5.123,37.041-15.369
			c10.243-10.252,15.369-22.599,15.369-37.045c0-14.444-5.126-26.793-15.369-37.041c-10.252-10.248-22.599-15.373-37.041-15.373
			C-809.315,196.05-821.663,201.175-831.91,211.423z"/>
		<path fill="#262424" d="M-609.772,274.395l-62.044-62.044v93.623c0,2.469-0.867,4.568-2.593,6.296
			c-1.73,1.73-3.8,2.594-6.208,2.594c-2.469,0-4.567-0.863-6.294-2.594c-1.729-1.728-2.593-3.827-2.593-6.296V190.958
			c0-3.95,1.82-6.667,5.461-8.148c1.297-0.559,2.533-0.837,3.705-0.837c2.159,0,4.134,0.896,5.929,2.688l64.637,64.639v-58.341
			c0-2.469,0.863-4.568,2.593-6.298c1.73-1.729,3.83-2.594,6.298-2.594c2.409,0,4.474,0.865,6.204,2.594
			c1.729,1.729,2.597,3.829,2.597,6.298v115.016c0,2.469-0.867,4.568-2.597,6.296c-1.73,1.73-3.795,2.594-6.204,2.594
			c-2.468,0-4.567-0.863-6.298-2.594c-1.729-1.728-2.593-3.827-2.593-6.296V274.395z"/>
		<path fill="#262424" d="M-537.005,298.006c-13.707-13.703-20.56-30.217-20.56-49.542c0-19.321,6.853-35.839,20.56-49.542
			c13.705-13.706,30.221-20.558,49.543-20.558c19.324,0,35.838,6.852,49.543,20.558c13.707,13.703,20.559,30.221,20.559,49.542
			c0,19.325-6.852,35.839-20.559,49.542c-13.705,13.706-30.219,20.562-49.543,20.562
			C-506.784,318.569-523.3,311.712-537.005,298.006z M-524.503,211.423c-10.252,10.248-15.374,22.597-15.374,37.041
			c0,14.446,5.122,26.793,15.374,37.045c10.248,10.246,22.596,15.369,37.041,15.369c14.447,0,26.793-5.123,37.045-15.369
			c10.244-10.252,15.369-22.599,15.369-37.045c0-14.444-5.125-26.793-15.369-37.041c-10.252-10.248-22.598-15.373-37.045-15.373
			C-501.907,196.05-514.255,201.175-524.503,211.423z"/>
		<path fill="#262424" d="M-345.245,266.8h-18.52v39.174c0,2.469-0.863,4.568-2.594,6.296c-1.725,1.73-3.795,2.594-6.203,2.594
			c-2.469,0-4.572-0.863-6.299-2.594c-1.725-1.728-2.592-3.827-2.592-6.296v-47.971c0-2.469,0.867-4.567,2.592-6.298
			c1.727-1.726,3.83-2.593,6.299-2.593h9.629l-16.574-16.574c-1.73-1.729-2.594-3.829-2.594-6.298c0-2.408,0.863-4.476,2.594-6.205
			c1.729-1.726,3.824-2.593,6.297-2.593c2.408,0,4.475,0.867,6.203,2.593l29.082,29.077h3.332c6.791,0,12.596-2.406,17.408-7.224
			c4.816-4.812,7.221-10.616,7.221-17.408c0-6.79-2.404-12.594-7.221-17.411c-4.812-4.814-10.617-7.223-17.408-7.223h-38.617
			c-2.473,0-4.568-0.865-6.297-2.591c-1.73-1.73-2.594-3.829-2.594-6.298s0.863-4.568,2.594-6.298
			c1.729-1.729,3.824-2.594,6.297-2.594h38.617c11.668,0,21.637,4.169,29.91,12.502c8.271,8.274,12.41,18.243,12.41,29.912
			s-4.139,21.64-12.41,29.912c-5.127,5.126-10.896,8.672-17.314,10.646l34.727,34.729c1.727,1.73,2.594,3.797,2.594,6.205
			c0,2.469-0.867,4.568-2.594,6.296c-1.73,1.73-3.799,2.594-6.207,2.594c-2.469,0-4.568-0.863-6.295-2.594L-345.245,266.8z"/>
		<path fill="#262424" d="M-229.601,298.006c-13.713-13.703-20.564-30.217-20.564-49.542c0-19.321,6.852-35.839,20.564-49.542
			c13.703-13.706,30.215-20.558,49.541-20.558c19.324,0,35.84,6.852,49.543,20.558c13.707,13.703,20.561,30.221,20.561,49.542
			c0,19.325-6.854,35.839-20.561,49.542c-13.703,13.706-30.219,20.562-49.543,20.562
			C-199.386,318.569-215.897,311.712-229.601,298.006z M-217.104,211.423c-10.248,10.248-15.369,22.597-15.369,37.041
			c0,14.446,5.121,26.793,15.369,37.045c10.252,10.246,22.596,15.369,37.045,15.369c14.447,0,26.789-5.123,37.041-15.369
			c10.248-10.252,15.375-22.599,15.375-37.045c0-14.444-5.127-26.793-15.375-37.041c-10.252-10.248-22.594-15.373-37.041-15.373
			C-194.509,196.05-206.853,201.175-217.104,211.423z"/>
		<path fill="none" stroke="#262424" stroke-width="2.5" stroke-miterlimit="10" d="M-526.187,248.565
			c0-21.644,17.547-39.185,39.188-39.185c21.639,0,39.188,17.541,39.188,39.185s-17.549,39.186-39.188,39.186
			C-508.64,287.75-526.187,270.208-526.187,248.565z"/>
		<path fill="none" stroke="#262424" stroke-width="2.5" stroke-miterlimit="10" d="M-466.327,225.911
			c6.092,5.558,9.918,13.56,9.918,22.459c0,9.089-3.988,17.245-10.312,22.813"/>
		<path opacity="0.5" fill="none" stroke="#FFF02D" stroke-width="2.5" stroke-miterlimit="10" d="M-466.327,225.911"/>
		<path opacity="0.5" fill="none" stroke="#FFF02D" stroke-width="2.5" stroke-miterlimit="10" d="M-507.909,226.499"/>
		<path fill="none" stroke="#262424" stroke-width="2.5" stroke-miterlimit="10" d="M-508.241,271.572
			c-5.92-5.547-9.539-14.642-8.955-23.202c0.58-8.569,3.559-16.344,9.287-21.871"/>
		<path fill="none" stroke="#262424" stroke-width="2.44" stroke-miterlimit="10" d="M-508.991,248.853
			c0-11.991,9.719-21.708,21.709-21.708c11.982,0,21.707,9.717,21.707,21.708c0,11.986-9.725,21.703-21.707,21.703
			C-499.272,270.556-508.991,260.839-508.991,248.853z"/>
		<path fill="none" stroke="#262424" stroke-width="2.5" stroke-miterlimit="10" d="M-492.683,248.565
			c0-3.138,2.547-5.682,5.684-5.682c3.139,0,5.686,2.544,5.686,5.682c0,3.139-2.547,5.683-5.686,5.683
			C-490.136,254.248-492.683,251.704-492.683,248.565z"/>
	</g>
</g>
<g>
	<path fill="#FFFFFF" d="M27.028,124.309C13.321,110.605,6.47,94.092,6.47,74.767c0-19.321,6.852-35.839,20.559-49.542
		C40.733,11.519,57.249,4.667,76.571,4.667c19.324,0,35.838,6.852,49.543,20.558c13.707,13.703,20.559,30.221,20.559,49.542
		c0,19.325-6.852,35.839-20.559,49.542c-13.705,13.706-30.219,20.562-49.543,20.562C57.249,144.871,40.733,138.015,27.028,124.309z
		 M39.53,37.726C29.278,47.974,24.157,60.322,24.157,74.767c0,14.446,5.121,26.793,15.373,37.045
		c10.248,10.246,22.596,15.369,37.041,15.369c14.447,0,26.793-5.123,37.045-15.369c10.244-10.252,15.369-22.599,15.369-37.045
		c0-14.444-5.125-26.793-15.369-37.041c-10.252-10.248-22.598-15.373-37.045-15.373C62.126,22.353,49.778,27.478,39.53,37.726z"/>
	<g>
		<path fill="#FFFFFF" d="M77.034,115.303c-22.297,0-40.438-18.139-40.438-40.436c0-22.296,18.141-40.435,40.438-40.435
			s40.438,18.139,40.438,40.435C117.472,97.164,99.331,115.303,77.034,115.303z M77.034,36.933
			c-20.919,0-37.938,17.018-37.938,37.935c0,20.918,17.019,37.936,37.938,37.936s37.938-17.018,37.938-37.936
			C114.972,53.95,97.953,36.933,77.034,36.933z"/>
	</g>
	<g>
		<path fill="#FFFFFF" d="M98.138,98.423l-1.652-1.876c6.284-5.533,9.889-13.507,9.889-21.875c0-8.172-3.467-16.021-9.511-21.536
			l1.686-1.847c6.562,5.986,10.325,14.509,10.325,23.382C108.874,83.759,104.961,92.416,98.138,98.423z"/>
	</g>
	<g opacity="0.5">
		<path fill="#FFFFFF" d="M97.706,52.213"/>
	</g>
	<g opacity="0.5">
		<path fill="#FFFFFF" d="M56.124,52.801"/>
	</g>
	<g>
		<path fill="#FFFFFF" d="M54.938,98.786c-6.28-5.884-9.949-15.383-9.348-24.199c0.633-9.35,3.976-17.195,9.666-22.686l1.736,1.799
			c-5.237,5.053-8.317,12.334-8.908,21.056c-0.553,8.098,2.809,16.814,8.562,22.206L54.938,98.786z"/>
	</g>
	<g>
		<path fill="#FFFFFF" d="M76.751,98.079c-12.644,0-22.929-10.284-22.929-22.923c0-12.643,10.285-22.928,22.929-22.928
			c12.642,0,22.927,10.286,22.927,22.928C99.678,87.795,89.393,98.079,76.751,98.079z M76.751,54.667
			c-11.298,0-20.489,9.19-20.489,20.488c0,11.294,9.191,20.483,20.489,20.483c11.297,0,20.487-9.188,20.487-20.483
			C97.238,63.858,88.048,54.667,76.751,54.667z"/>
	</g>
	<g>
		<path fill="#FFFFFF" d="M77.034,81.8c-3.823,0-6.934-3.11-6.934-6.933c0-3.822,3.11-6.932,6.934-6.932
			c3.824,0,6.936,3.109,6.936,6.932C83.97,78.69,80.858,81.8,77.034,81.8z M77.034,70.436c-2.444,0-4.434,1.988-4.434,4.432
			c0,2.444,1.989,4.433,4.434,4.433c2.445,0,4.436-1.988,4.436-4.433C81.47,72.423,79.479,70.436,77.034,70.436z"/>
	</g>
</g>
</svg>
