<?xml version="1.0" encoding="utf-8"?>
<!-- Generator: Adobe Illustrator 16.0.0, SVG Export Plug-In . SVG Version: 6.00 Build 0)  -->
<!DOCTYPE svg PUBLIC "-//W3C//DTD SVG 1.1//EN" "http://www.w3.org/Graphics/SVG/1.1/DTD/svg11.dtd">
<svg version="1.1" id="Capa_1" xmlns="http://www.w3.org/2000/svg" xmlns:xlink="http://www.w3.org/1999/xlink" x="0px" y="0px"
	 width="500px" height="500px" viewBox="0 0 500 500" enable-background="new 0 0 500 500" xml:space="preserve">
<g>
	<g>
		<path fill="#F7F7F7" d="M402.312,335.813"/>
		<path fill="#F7F7F7" d="M248.815,64.821"/>
		<g>
			<path fill="#F7F7F7" d="M134.588,391.535c0,15.184-12.31,27.493-27.495,27.493c-15.184,0-27.493-12.31-27.493-27.493
				c0-15.188,12.309-27.494,27.493-27.494C122.278,364.041,134.588,376.347,134.588,391.535z"/>
		</g>
		<g>
			<path fill="#F7F7F7" d="M419.038,390.638c0,15.185-12.31,27.493-27.495,27.493c-15.184,0-27.492-12.309-27.492-27.493
				c0-15.188,12.309-27.494,27.492-27.494C406.729,363.144,419.038,375.449,419.038,390.638z"/>
		</g>
		<g>
			<path fill="#F7F7F7" d="M280.505,466.583c0,17.364-14.075,31.439-31.44,31.439c-17.367,0-31.441-14.075-31.441-31.439
				c0-17.368,14.074-31.442,31.441-31.442C266.43,435.141,280.505,449.215,280.505,466.583z"/>
		</g>
		<path fill="#F7F7F7" d="M117.174,335.85c0,5.351-4.338,9.688-9.686,9.688c-5.353,0-9.692-4.338-9.692-9.688s4.339-9.69,9.692-9.69
			C112.835,326.159,117.174,330.499,117.174,335.85z"/>
		<circle fill="#F7F7F7" cx="391.038" cy="335.85" r="9.689"/>
		<circle fill="#F7F7F7" cx="248.615" cy="402.826" r="10.265"/>
		<path fill="#F7F7F7" d="M402.312,335.813"/>
		<path fill="#F7F7F7" d="M248.815,64.821c-84.755,0-153.458,68.705-153.458,153.459c0,84.75,68.704,153.457,153.458,153.457
			c84.752,0,153.456-68.707,153.456-153.457C402.271,133.525,333.567,64.821,248.815,64.821z M248.815,346.158
			c-70.626,0-127.881-57.255-127.881-127.878c0-70.633,57.255-127.885,127.881-127.885c70.626,0,127.884,57.251,127.884,127.885
			C376.699,288.903,319.441,346.158,248.815,346.158z"/>
		<path fill="#F7F7F7" d="M362.042,218.274c0,62.145-50.379,112.522-112.515,112.522c-62.145,0-112.522-50.378-112.522-112.522
			c0-62.137,50.378-112.516,112.522-112.516C311.663,105.758,362.042,156.137,362.042,218.274z"/>
		<path fill="#F7F7F7" d="M420.399,330.097"/>
		<path fill="#F7F7F7" d="M420.399,330.097"/>
	</g>
	<rect x="234" y="2" fill="#F7F7F7" width="29" height="47"/>
</g>
</svg>
