<?xml version="1.0" encoding="utf-8"?>
<!-- Generator: Adobe Illustrator 16.0.0, SVG Export Plug-In . SVG Version: 6.00 Build 0)  -->
<!DOCTYPE svg PUBLIC "-//W3C//DTD SVG 1.1//EN" "http://www.w3.org/Graphics/SVG/1.1/DTD/svg11.dtd">
<svg version="1.1" id="Capa_1" xmlns="http://www.w3.org/2000/svg" xmlns:xlink="http://www.w3.org/1999/xlink" x="0px" y="0px"
	 width="600px" height="600px" viewBox="0 0 600 600" enable-background="new 0 0 600 600" xml:space="preserve">
<g>
	<g>
		<path fill="#FFFFFF" d="M599.036,30.969c-0.037-0.112-0.037-0.263-0.075-0.413c-0.9-2.288-2.213-4.464-4.051-6.34
			c-0.338-0.338-0.751-0.45-1.088-0.75c-0.263-0.225-0.301-0.562-0.563-0.788c-0.487-0.375-1.088-0.375-1.612-0.713
			c-1.876-1.238-3.827-2.101-5.928-2.588c-0.825-0.188-1.575-0.413-2.438-0.488c-2.964-0.3-5.965-0.075-8.778,1.05L11.785,244.989
			c-6.94,2.738-11.592,9.378-11.779,16.881s4.089,14.368,10.917,17.52l214.17,98.85v184.233c0,8.403,5.59,15.794,13.655,18.045
			c1.688,0.487,3.414,0.713,5.102,0.713c6.415,0,12.492-3.302,15.981-8.929l85.082-138.729l153.697,70.939
			c2.476,1.088,5.177,1.688,7.841,1.688c3.038,0,6.039-0.75,8.778-2.176c5.177-2.738,8.778-7.728,9.716-13.505l75.029-450.136
			c0.074-0.375-0.15-0.713-0.113-1.088C600.162,36.484,600.012,33.67,599.036,30.969z M239.986,343.803L66.181,263.596
			L500.674,89.83L239.986,343.803z M262.607,496.036V395.572l47.981,22.171L262.607,496.036z M492.008,460.097l-215.521-99.45
			L553.568,90.692L492.008,460.097z"/>
	</g>
</g>
</svg>
