<?xml version="1.0" encoding="utf-8"?>
<!-- Generator: Adobe Illustrator 16.0.0, SVG Export Plug-In . SVG Version: 6.00 Build 0)  -->
<!DOCTYPE svg PUBLIC "-//W3C//DTD SVG 1.1//EN" "http://www.w3.org/Graphics/SVG/1.1/DTD/svg11.dtd">
<svg version="1.1" id="Capa_1" xmlns="http://www.w3.org/2000/svg" xmlns:xlink="http://www.w3.org/1999/xlink" x="0px" y="0px"
	 width="600px" height="600px" viewBox="0 0 600 600" enable-background="new 0 0 600 600" xml:space="preserve">
<g>
	<g>
		<path fill="#FFFFFF" d="M440.625,0c-13.18,0-272.277,0-281.25,0c-38.771,0-70.312,31.542-70.312,70.312v459.375
			c0,38.771,31.542,70.312,70.312,70.312h281.25c38.771,0,70.312-31.542,70.312-70.312V70.312C510.938,31.542,479.396,0,440.625,0z
			 M464.062,529.688c0,12.924-10.514,23.438-23.438,23.438h-281.25c-12.923,0-23.438-10.514-23.438-23.438V70.312
			c0-12.923,10.514-23.438,23.438-23.438h41.753l4.882,14.507c3.208,9.538,12.15,15.962,22.213,15.962h143.555
			c10.062,0,19.004-6.424,22.213-15.962l4.882-14.507h41.753c12.924,0,23.438,10.514,23.438,23.438V529.688z"/>
	</g>
</g>
</svg>
