<?xml version="1.0" encoding="utf-8"?>
<!-- Generator: Adobe Illustrator 16.0.0, SVG Export Plug-In . SVG Version: 6.00 Build 0)  -->
<!DOCTYPE svg PUBLIC "-//W3C//DTD SVG 1.1//EN" "http://www.w3.org/Graphics/SVG/1.1/DTD/svg11.dtd">
<svg version="1.1" id="Capa_1" xmlns="http://www.w3.org/2000/svg" xmlns:xlink="http://www.w3.org/1999/xlink" x="0px" y="0px"
	 width="600px" height="600px" viewBox="0 0 600 600" enable-background="new 0 0 600 600" xml:space="preserve">
<g>
	<g>
		<path fill="#FFFFFF" d="M300,0C175.913,0,75,100.913,75,225c0,155.963,203.1,360.862,211.725,369.525
			C290.4,598.162,295.2,600,300,600s9.6-1.838,13.275-5.475C321.9,585.862,525,380.963,525,225C525,100.913,424.088,0,300,0z
			 M300,554.138c-44.775-47.925-187.5-210-187.5-329.138c0-103.388,84.112-187.5,187.5-187.5S487.5,121.612,487.5,225
			C487.5,344.025,344.775,506.213,300,554.138z"/>
	</g>
</g>
<g>
	<g>
		<path fill="#FFFFFF" d="M300,112.5c-62.025,0-112.5,50.475-112.5,112.5S237.975,337.5,300,337.5
			c62.025,0,112.5-50.475,112.5-112.5S362.025,112.5,300,112.5z M300,300c-41.362,0-75-33.638-75-75s33.638-75,75-75
			s75,33.638,75,75S341.362,300,300,300z"/>
	</g>
</g>
</svg>
