<?xml version="1.0" encoding="utf-8"?>
<!-- Generator: Adobe Illustrator 16.0.0, SVG Export Plug-In . SVG Version: 6.00 Build 0)  -->
<!DOCTYPE svg PUBLIC "-//W3C//DTD SVG 1.1//EN" "http://www.w3.org/Graphics/SVG/1.1/DTD/svg11.dtd">
<svg version="1.1" id="Capa_1" xmlns="http://www.w3.org/2000/svg" xmlns:xlink="http://www.w3.org/1999/xlink" x="0px" y="0px"
	 width="148.87px" height="148.872px" viewBox="1.636 -161.167 148.87 148.872"
	 enable-background="new 1.636 -161.167 148.87 148.872" xml:space="preserve">
<g>
	<path fill="#FFFFFF" d="M23.465-34.128C8.91-48.679,1.636-66.214,1.636-86.733c0-20.516,7.275-38.055,21.83-52.605
		c14.551-14.553,32.088-21.829,52.605-21.829c20.519,0,38.054,7.276,52.605,21.829c14.555,14.55,21.83,32.089,21.83,52.605
		c0,20.519-7.275,38.055-21.83,52.604C114.125-19.575,96.59-12.295,76.071-12.295C55.554-12.295,38.017-19.575,23.465-34.128z
		 M36.74-126.064c-10.886,10.881-16.324,23.993-16.324,39.331s5.438,28.449,16.324,39.335c10.882,10.88,23.993,16.319,39.331,16.319
		c15.341,0,28.449-5.439,39.335-16.319c10.878-10.886,16.319-23.997,16.319-39.335c0-15.337-5.441-28.45-16.319-39.331
		c-10.886-10.882-23.994-16.324-39.335-16.324C60.733-142.388,47.622-136.946,36.74-126.064z"/>
	<g>
		<path fill="#FFFFFF" d="M76.563-43.692c-23.676,0-42.938-19.26-42.938-42.935c0-23.675,19.262-42.935,42.938-42.935
			c23.675,0,42.938,19.26,42.938,42.935C119.501-62.952,100.238-43.692,76.563-43.692z M76.563-126.906
			c-22.212,0-40.283,18.07-40.283,40.281c0,22.212,18.071,40.281,40.283,40.281s40.284-18.069,40.284-40.281
			C116.846-108.837,98.775-126.906,76.563-126.906z"/>
	</g>
	<g>
		<path fill="#FFFFFF" d="M98.971-61.614l-1.754-1.993c6.673-5.875,10.5-14.341,10.5-23.227c0-8.677-3.682-17.012-10.099-22.868
			l1.789-1.961c6.969,6.356,10.964,15.406,10.964,24.828C110.371-77.185,106.216-67.994,98.971-61.614z"/>
	</g>
	<g opacity="0.5">
		<path fill="#FFFFFF" d="M98.512-110.682"/>
	</g>
	<g opacity="0.5">
		<path fill="#FFFFFF" d="M54.36-110.058"/>
	</g>
	<g>
		<path fill="#FFFFFF" d="M53.101-61.228c-6.668-6.249-10.564-16.335-9.927-25.696c0.673-9.928,4.223-18.258,10.264-24.089
			l1.844,1.911c-5.561,5.365-8.832,13.097-9.459,22.357c-0.587,8.599,2.983,17.854,9.092,23.58L53.101-61.228z"/>
	</g>
	<g>
		<path fill="#FFFFFF" d="M76.262-61.979c-13.425,0-24.346-10.921-24.346-24.341c0-13.425,10.921-24.346,24.346-24.346
			c13.424,0,24.345,10.922,24.345,24.346C100.607-72.9,89.686-61.979,76.262-61.979z M76.262-108.076
			c-11.997,0-21.755,9.758-21.755,21.755c0,11.991,9.759,21.749,21.755,21.749c11.996,0,21.753-9.755,21.753-21.749
			C98.015-98.317,88.258-108.076,76.262-108.076z"/>
	</g>
	<g>
		<path fill="#FFFFFF" d="M76.563-79.265c-4.06,0-7.362-3.303-7.362-7.362c0-4.058,3.301-7.36,7.362-7.36
			c4.06,0,7.365,3.301,7.365,7.36C83.927-82.568,80.623-79.265,76.563-79.265z M76.563-91.332c-2.596,0-4.708,2.111-4.708,4.707
			c0,2.595,2.111,4.706,4.708,4.706c2.596,0,4.71-2.11,4.71-4.706C81.273-89.222,79.159-91.332,76.563-91.332z"/>
	</g>
</g>
</svg>
